<?xml version="1.0" encoding="UTF-8" standalone="no"?>
<svg
   xmlns:dc="http://purl.org/dc/elements/1.1/"
   xmlns:cc="http://creativecommons.org/ns#"
   xmlns:rdf="http://www.w3.org/1999/02/22-rdf-syntax-ns#"
   xmlns:svg="http://www.w3.org/2000/svg"
   xmlns="http://www.w3.org/2000/svg"
   xmlns:sodipodi="http://sodipodi.sourceforge.net/DTD/sodipodi-0.dtd"
   xmlns:inkscape="http://www.inkscape.org/namespaces/inkscape"
   width="11in"
   height="8.5in"
   viewBox="0 0 279.4 215.9"
   version="1.1"
   id="svg875"
   inkscape:version="1.0.2 (e86c870879, 2021-01-15)"
   sodipodi:docname="monterey-protocols-zine_cover.svg">
  <defs
     id="defs869">
    <rect
       x="56.213345"
       y="16.818018"
       width="49.436391"
       height="39.02265"
       id="rect1083" />
    <rect
       x="35.757821"
       y="26.371633"
       width="82.074809"
       height="32.225964"
       id="rect1077" />
    <rect
       x="161.7544"
       y="97.222781"
       width="99.321755"
       height="26.857869"
       id="rect1071" />
    <rect
       x="148.61074"
       y="27.84216"
       width="123.05418"
       height="19.452871"
       id="rect1059" />
    <rect
       x="218.12138"
       y="13.544031"
       width="48.175836"
       height="20.522905"
       id="rect1053" />
    <rect
       x="6.5763146"
       y="171.27957"
       width="37.281354"
       height="40.14073"
       id="rect1266" />
    <rect
       x="15.552605"
       y="169.20369"
       width="55.408504"
       height="19.162302"
       id="rect872" />
    <rect
       x="18.073477"
       y="171.82176"
       width="22.116512"
       height="3.8887208"
       id="rect860" />
    <rect
       x="171.1179"
       y="29.559788"
       width="135.95537"
       height="218.29167"
       id="rect846" />
    <rect
       x="171.1179"
       y="29.559788"
       width="128.55434"
       height="143.01723"
       id="rect846-1" />
    <rect
       x="171.1179"
       y="29.559788"
       width="135.95537"
       height="218.29167"
       id="rect893" />
    <rect
       x="171.1179"
       y="29.559788"
       width="135.95537"
       height="218.29167"
       id="rect846-3" />
    <rect
       x="171.1179"
       y="29.559788"
       width="135.95537"
       height="218.29167"
       id="rect983" />
    <rect
       x="171.1179"
       y="29.559788"
       width="135.95537"
       height="218.29167"
       id="rect846-3-9" />
    <rect
       x="171.1179"
       y="29.559788"
       width="135.95537"
       height="218.29167"
       id="rect1101" />
    <rect
       x="171.1179"
       y="29.559788"
       width="135.95537"
       height="218.29167"
       id="rect846-2" />
    <rect
       x="171.1179"
       y="29.559788"
       width="135.95537"
       height="218.29167"
       id="rect1139" />
    <rect
       x="171.1179"
       y="29.559788"
       width="135.95537"
       height="218.29167"
       id="rect846-2-0" />
    <rect
       x="171.1179"
       y="29.559788"
       width="135.95537"
       height="218.29167"
       id="rect1175" />
    <rect
       x="171.1179"
       y="29.559788"
       width="135.95537"
       height="218.29167"
       id="rect846-6" />
    <rect
       x="171.1179"
       y="29.559788"
       width="135.95537"
       height="218.29167"
       id="rect1236" />
    <rect
       x="56.213345"
       y="16.818018"
       width="49.43639"
       height="39.022652"
       id="rect1083-7" />
    <rect
       x="56.213345"
       y="16.818018"
       width="49.43639"
       height="39.022652"
       id="rect1096" />
    <rect
       x="56.213345"
       y="16.818018"
       width="49.43639"
       height="39.022652"
       id="rect1083-3" />
    <rect
       x="56.213345"
       y="16.818018"
       width="49.43639"
       height="39.022652"
       id="rect1132" />
  </defs>
  <sodipodi:namedview
     id="base"
     pagecolor="#ffffff"
     bordercolor="#666666"
     borderopacity="1.0"
     inkscape:pageopacity="0.0"
     inkscape:pageshadow="2"
     inkscape:zoom="0.43511847"
     inkscape:cx="655.63093"
     inkscape:cy="713.12063"
     inkscape:document-units="mm"
     inkscape:current-layer="layer1"
     inkscape:document-rotation="0"
     showgrid="false"
     units="in"
     inkscape:window-width="1422"
     inkscape:window-height="960"
     inkscape:window-x="488"
     inkscape:window-y="206"
     inkscape:window-maximized="0"
     showguides="true"
     inkscape:guide-bbox="true">
    <sodipodi:guide
       position="139.91318,84.348191"
       orientation="1,0"
       id="guide856" />
  </sodipodi:namedview>
  <metadata
     id="metadata872">
    <rdf:RDF>
      <cc:Work
         rdf:about="">
        <dc:format>image/svg+xml</dc:format>
        <dc:type
           rdf:resource="http://purl.org/dc/dcmitype/StillImage" />
        <dc:title />
      </cc:Work>
    </rdf:RDF>
  </metadata>
  <g
     inkscape:label="Layer 1"
     inkscape:groupmode="layer"
     id="layer1"
     style="opacity:1">
    <text
       xml:space="preserve"
       id="text1081-3"
       style="font-size:3.175px;line-height:1.25;font-family:'Noto Mono';-inkscape-font-specification:'Noto Mono';word-spacing:0px;white-space:pre;shape-inside:url(#rect1083-7);"
       transform="rotate(90,76.48061,82.132221)"><tspan
         x="56.212891"
         y="19.735455"><tspan
           style="font-style:normal;font-variant:normal;font-weight:normal;font-stretch:normal;font-size:3.175px;font-family:'TeX Gyre Adventor';-inkscape-font-specification:'TeX Gyre Adventor'">THE  MONTEREY  PROTOCOLS</tspan></tspan></text>
    <g
       id="text852"
       style="font-size:3.88056px;line-height:1.25;font-family:'Noto Mono';-inkscape-font-specification:'Noto Mono';word-spacing:0px;stroke-width:0.264583" />
    <g
       aria-label="VERMONT"
       transform="matrix(0.94815254,0,0,0.94815254,-25.576386,152.2567)"
       id="text844-7-9"
       style="font-size:6.69723px;line-height:0.75;font-family:'Noto Mono';-inkscape-font-specification:'Noto Mono';word-spacing:0px;white-space:pre;shape-inside:url(#rect846-2-0);stroke-width:1.05468">
      <text
         xml:space="preserve"
         id="text1051"
         style="font-size:5.02293px;line-height:1.25;font-family:'Noto Mono';-inkscape-font-specification:'Noto Mono';text-align:center;word-spacing:0px;white-space:pre;shape-inside:url(#rect1053)"
         transform="translate(3.8293244,8.7741923)"
         x="18.775469"
         y="0"><tspan
           x="218.95787"
           y="18.15984"><tspan
             style="font-style:normal;font-variant:normal;font-weight:normal;font-stretch:normal;font-size:5.02293px;font-family:'TeX Gyre Adventor';-inkscape-font-specification:'TeX Gyre Adventor';text-align:center;text-anchor:middle">MADE IN VERMONT
</tspan></tspan><tspan
           x="236.64359"
           y="24.449069"><tspan
             style="font-style:normal;font-variant:normal;font-weight:normal;font-stretch:normal;font-size:5.02293px;font-family:'TeX Gyre Adventor';-inkscape-font-specification:'TeX Gyre Adventor';text-align:center;text-anchor:middle">2026</tspan></tspan></text>
    </g>
    <g
       id="g938"
       transform="matrix(0.03527778,0,0,-0.03527778,70.031522,194.17234)">
      <path
         d="M 93.8281,60.9453 H 101.48 V 673.797 H 93.8281 V 60.9453"
         style="fill:#000000;fill-opacity:1;fill-rule:nonzero;stroke:none"
         id="path940" />
      <path
         d="m 110.836,60.9453 h 7.652 V 673.797 h -7.652 V 60.9453"
         style="fill:#000000;fill-opacity:1;fill-rule:nonzero;stroke:none"
         id="path942" />
      <path
         d="m 127.277,103.465 h 25.227 V 673.797 H 127.277 V 103.465"
         style="fill:#000000;fill-opacity:1;fill-rule:nonzero;stroke:none"
         id="path944" />
      <path
         d="m 161.293,103.465 h 16.723 V 673.797 H 161.293 V 103.465"
         style="fill:#000000;fill-opacity:1;fill-rule:nonzero;stroke:none"
         id="path946" />
      <path
         d="m 195.875,103.465 h 7.652 v 570.332 h -7.652 V 103.465"
         style="fill:#000000;fill-opacity:1;fill-rule:nonzero;stroke:none"
         id="path948" />
      <path
         d="m 212.883,103.465 h 24.66 v 570.332 h -24.66 V 103.465"
         style="fill:#000000;fill-opacity:1;fill-rule:nonzero;stroke:none"
         id="path950" />
      <path
         d="m 264.473,103.465 h 7.086 v 570.332 h -7.086 V 103.465"
         style="fill:#000000;fill-opacity:1;fill-rule:nonzero;stroke:none"
         id="path952" />
      <path
         d="m 289.984,103.465 h 7.086 v 570.332 h -7.086 V 103.465"
         style="fill:#000000;fill-opacity:1;fill-rule:nonzero;stroke:none"
         id="path954" />
      <path
         d="m 315.496,103.465 h 7.086 v 570.332 h -7.086 V 103.465"
         style="fill:#000000;fill-opacity:1;fill-rule:nonzero;stroke:none"
         id="path956" />
      <path
         d="m 341.008,103.465 h 15.59 v 570.332 h -15.59 V 103.465"
         style="fill:#000000;fill-opacity:1;fill-rule:nonzero;stroke:none"
         id="path958" />
      <path
         d="m 365.953,103.465 h 7.652 v 570.332 h -7.652 V 103.465"
         style="fill:#000000;fill-opacity:1;fill-rule:nonzero;stroke:none"
         id="path960" />
      <path
         d="m 408.473,103.465 h 7.652 v 570.332 h -7.652 V 103.465"
         style="fill:#000000;fill-opacity:1;fill-rule:nonzero;stroke:none"
         id="path962" />
      <path
         d="m 425.48,103.465 h 7.653 V 673.797 H 425.48 V 103.465"
         style="fill:#000000;fill-opacity:1;fill-rule:nonzero;stroke:none"
         id="path964" />
      <path
         d="m 459.496,103.465 h 16.156 V 673.797 H 459.496 V 103.465"
         style="fill:#000000;fill-opacity:1;fill-rule:nonzero;stroke:none"
         id="path966" />
      <path
         d="m 485.008,60.9453 h 7.652 V 673.797 h -7.652 V 60.9453"
         style="fill:#000000;fill-opacity:1;fill-rule:nonzero;stroke:none"
         id="path968" />
      <path
         d="m 502.016,60.9453 h 7.652 V 673.797 h -7.652 V 60.9453"
         style="fill:#000000;fill-opacity:1;fill-rule:nonzero;stroke:none"
         id="path970" />
      <path
         d="m 519.023,103.465 h 24.661 V 673.797 H 519.023 V 103.465"
         style="fill:#000000;fill-opacity:1;fill-rule:nonzero;stroke:none"
         id="path972" />
      <path
         d="m 561.543,103.465 h 7.652 v 570.332 h -7.652 V 103.465"
         style="fill:#000000;fill-opacity:1;fill-rule:nonzero;stroke:none"
         id="path974" />
      <path
         d="m 578.551,103.465 h 7.652 v 570.332 h -7.652 V 103.465"
         style="fill:#000000;fill-opacity:1;fill-rule:nonzero;stroke:none"
         id="path976" />
      <path
         d="m 595.559,103.465 h 7.652 v 570.332 h -7.652 V 103.465"
         style="fill:#000000;fill-opacity:1;fill-rule:nonzero;stroke:none"
         id="path978" />
      <path
         d="m 638.078,103.465 h 7.652 v 570.332 h -7.652 V 103.465"
         style="fill:#000000;fill-opacity:1;fill-rule:nonzero;stroke:none"
         id="path980" />
      <path
         d="m 663.59,103.465 h 24.664 V 673.797 H 663.59 V 103.465"
         style="fill:#000000;fill-opacity:1;fill-rule:nonzero;stroke:none"
         id="path982" />
      <path
         d="M 697.605,103.465 H 722.27 V 673.797 H 697.605 V 103.465"
         style="fill:#000000;fill-opacity:1;fill-rule:nonzero;stroke:none"
         id="path984" />
      <path
         d="m 740.125,103.465 h 7.656 v 570.332 h -7.656 V 103.465"
         style="fill:#000000;fill-opacity:1;fill-rule:nonzero;stroke:none"
         id="path986" />
      <path
         d="m 757.133,103.465 h 24.664 V 673.797 H 757.133 V 103.465"
         style="fill:#000000;fill-opacity:1;fill-rule:nonzero;stroke:none"
         id="path988" />
      <path
         d="m 791.148,103.465 h 7.657 v 570.332 h -7.657 V 103.465"
         style="fill:#000000;fill-opacity:1;fill-rule:nonzero;stroke:none"
         id="path990" />
      <path
         d="m 816.66,103.465 h 7.656 V 673.797 H 816.66 V 103.465"
         style="fill:#000000;fill-opacity:1;fill-rule:nonzero;stroke:none"
         id="path992" />
      <path
         d="m 833.668,103.465 h 24.664 V 673.797 H 833.668 V 103.465"
         style="fill:#000000;fill-opacity:1;fill-rule:nonzero;stroke:none"
         id="path994" />
      <path
         d="m 876.188,60.9453 h 7.656 V 673.797 h -7.656 V 60.9453"
         style="fill:#000000;fill-opacity:1;fill-rule:nonzero;stroke:none"
         id="path996" />
      <path
         d="m 893.195,60.9453 h 7.657 V 673.797 h -7.657 V 60.9453"
         style="fill:#000000;fill-opacity:1;fill-rule:nonzero;stroke:none"
         id="path998" />
      <g
         id="g1000"
         transform="scale(10)">
        <g
           aria-label="9798234065094"
           transform="matrix(1,0,0,-1,0,1.89336)"
           id="text1004"
           style="font-variant:normal;font-weight:normal;font-size:9.46772px;font-family:OCRB;-inkscape-font-specification:OCRB;writing-mode:lr-tb;fill:#000000;fill-opacity:1;fill-rule:nonzero;stroke:none">
          <path
             d="m 1.0698524,-4.8664081 c 0,1.2686745 0.9183688,2.2817205 2.36693,2.2817205 0.1893544,0 0.3881765,-0.00947 0.5775309,-0.037871 -0.4449828,0.7006112 -0.9846429,1.3349485 -1.6000447,1.89354396 -0.094677,0.0946772 -0.1514835,0.20828984 -0.1514835,0.35030564 0,0.26509616 0.2177575,0.473386 0.473386,0.473386 0.1136126,0 0.2272253,-0.0473386 0.3124348,-0.12308036 0.7858207,-0.70061128 1.4485611,-1.52430294 1.9882212,-2.43320404 0.3976442,-0.6911436 0.7668853,-1.4106903 0.7668853,-2.4048009 0,-1.4958998 -1.0414492,-2.4521395 -2.36693,-2.4521395 -1.3254808,0 -2.36693,1.117191 -2.36693,2.4521397 z m 0.946772,0 c 0,-0.8142239 0.6154018,-1.5053675 1.420158,-1.5053675 0.8426271,0 1.420158,0.5680632 1.420158,1.5053675 0,0.236693 -0.037871,0.4639183 -0.094677,0.6816758 -0.1609513,0.5207246 -0.7479499,0.6532727 -1.3254808,0.6532727 -0.880498,0 -1.420158,-0.5491277 -1.4201582,-1.3349485 z"
             id="path1609" />
          <path
             d="m 12.97533,-6.7031458 c 0,0.2556285 0.217757,0.473386 0.473386,0.473386 h 3.219025 c -0.07574,0.1988221 -0.198822,0.3787088 -0.312435,0.5491278 -0.454451,0.6627404 -1.031982,1.2308036 -1.429626,1.9314149 -0.577531,1.013046 -0.757417,2.196511 -0.757417,3.3705083 0,0.26509616 0.217757,0.473386 0.473386,0.473386 0.255628,0 0.473386,-0.21775756 0.473386,-0.473386 0,-1.0035783 0.132548,-2.0260921 0.634337,-2.9065901 0.388176,-0.6722081 0.95624,-1.2213358 1.391755,-1.8556731 0.312434,-0.473386 0.568063,-0.9941106 0.568063,-1.5621738 0,-0.2556284 -0.20829,-0.473386 -0.473386,-0.473386 h -3.787088 c -0.265096,0 -0.473386,0.2082899 -0.473386,0.473386 z"
             id="path1611" />
          <path
             d="m 18.928068,-4.8664081 c 0,1.2686745 0.918369,2.2817205 2.36693,2.2817205 0.189354,0 0.388176,-0.00947 0.577531,-0.037871 -0.444983,0.7006112 -0.984643,1.3349485 -1.600045,1.89354396 -0.09468,0.0946772 -0.151484,0.20828984 -0.151484,0.35030564 0,0.26509616 0.217758,0.473386 0.473386,0.473386 0.113613,0 0.227226,-0.0473386 0.312435,-0.12308036 0.785821,-0.70061128 1.448561,-1.52430294 1.988221,-2.43320404 0.397645,-0.6911436 0.766886,-1.4106903 0.766886,-2.4048009 0,-1.4958998 -1.041449,-2.4521395 -2.36693,-2.4521395 -1.325481,0 -2.36693,1.117191 -2.36693,2.4521397 z m 0.946772,0 c 0,-0.8142239 0.615402,-1.5053675 1.420158,-1.5053675 0.842627,0 1.420158,0.5680632 1.420158,1.5053675 0,0.236693 -0.03787,0.4639183 -0.09468,0.6816758 -0.160952,0.5207246 -0.74795,0.6532727 -1.325481,0.6532727 -0.880498,0 -1.420158,-0.5491277 -1.420158,-1.3349485 z"
             id="path1613" />
          <path
             d="m 24.880806,-1.893544 c 0,1.20240044 1.003578,2.01662436 2.36693,2.01662436 0.08521,0 0.170418,0.009468 0.24616,0.009468 0.03787,0 0.07574,0 0.113613,-0.009468 h 0.07574 c 1.117191,-0.10414492 1.931415,-1.02251376 1.931415,-2.01662436 0,-0.9278366 -0.653273,-1.6189801 -1.37282,-2.1113016 0.586999,-0.3692411 1.050917,-0.8426271 1.050917,-1.6757864 0,-0.9941106 -1.050917,-1.6379156 -2.045027,-1.6379156 -1.003579,0 -2.045028,0.6343373 -2.045028,1.6379156 0,0.8331593 0.473386,1.3254808 1.060385,1.6757864 -0.729015,0.4923215 -1.382287,1.1739973 -1.382287,2.1113016 z m 0.937304,0 c 0,-0.7858208 0.852095,-1.2970777 1.448561,-1.6000447 0.615402,0.3219025 1.401223,0.8520948 1.401223,1.6000447 0,0.5869986 -0.558596,1.06985236 -1.221336,1.06985236 h -0.198822 c -0.776354,0 -1.429626,-0.36924106 -1.429626,-1.06985236 z m 0.33137,-3.787088 c 0,-0.4828537 0.66274,-0.6911436 1.098256,-0.6911436 0.435515,0 1.098255,0.2082899 1.098255,0.6911436 0,0.6343372 -0.558595,0.8899657 -1.098255,1.1266587 -0.539661,-0.236693 -1.098256,-0.4923215 -1.098256,-1.1266587 z"
             id="path1615" />
          <path
             d="m 30.994495,-6.3433724 c 0,0.2461607 0.227225,0.4639183 0.473386,0.4639183 0.09468,0 0.189354,-0.037871 0.274563,-0.085209 0.407112,-0.3029671 0.83316,-0.407112 1.458029,-0.407112 0.643805,0 1.173998,0.407112 1.173998,1.0698524 0,0.2556284 -0.104145,0.4923214 -0.255629,0.6911435 -0.255628,0.340838 -0.74795,0.6532727 -1.173997,0.9278366 -0.757418,0.4828537 -1.505368,1.0698524 -1.751528,1.9314149 -0.08521,0.2934993 -0.09468,0.7006113 -0.09468,1.06985236 v 0.19882212 c 0,0.25562844 0.217758,0.473386 0.473386,0.473386 h 3.332638 c 0.255628,0 0.473386,-0.21775756 0.473386,-0.473386 0,-0.25562844 -0.20829,-0.473386 -0.473386,-0.473386 h -2.849784 c 0.05681,-1.09825548 0.653273,-1.45802888 1.401223,-1.93141488 0.804756,-0.5112569 1.865141,-1.1645296 1.865141,-2.4142686 0,-1.2118682 -0.918369,-2.0166244 -2.12077,-2.0166244 -0.87103,0 -1.429625,0.170419 -2.007156,0.5775309 -0.123081,0.066274 -0.198822,0.2556285 -0.198822,0.3976443 z"
             id="path1617" />
          <path
             d="m 36.786279,-0.65327268 c 0,0.69114356 1.363352,0.77635304 1.931415,0.77635304 1.458029,0 2.660429,-0.83315936 2.717236,-2.26278506 v -0.1514835 c 0,-1.1739973 -0.823692,-1.9030118 -1.884077,-2.1775757 l 1.505368,-1.5905769 c 0.08521,-0.085209 0.142016,-0.1893544 0.142016,-0.3124348 v -0.3313702 c 0,-0.2556284 -0.217758,-0.473386 -0.473386,-0.473386 h -3.436783 c -0.265096,0 -0.473386,0.2082899 -0.473386,0.473386 0,0.2556285 0.217758,0.473386 0.473386,0.473386 h 2.641494 l -1.74206,1.82727 c -0.07574,0.075742 -0.104145,0.1893544 -0.104145,0.2934993 0,0.2556284 0.217757,0.473386 0.473386,0.473386 0.965707,0 1.931415,0.3787088 1.931415,1.3633517 v 0.085209 c -0.04734,0.9373043 -0.842627,1.36335166 -1.770464,1.36335166 -0.435515,0 -0.87103,-0.0852095 -1.278142,-0.26509616 -0.05681,-0.018935 -0.113613,-0.037871 -0.179887,-0.037871 -0.255628,0 -0.473386,0.20828986 -0.473386,0.47338662 z"
             id="path1619" />
          <path
             d="m 42.739019,-2.0260921 c 0,0.2650962 0.217757,0.473386 0.473386,0.473386 h 2.338527 v 1.1739973 c 0,0.25562844 0.217757,0.473386 0.473386,0.473386 0.255628,0 0.473386,-0.21775756 0.473386,-0.473386 v -1.1739973 h 0.501789 c 0.255628,0 0.473386,-0.2177575 0.473386,-0.473386 0,-0.2556284 -0.20829,-0.473386 -0.473386,-0.473386 h -0.501789 v -1.0982555 c 0,-0.2556285 -0.217758,-0.473386 -0.473386,-0.473386 -0.255629,0 -0.473386,0.2177575 -0.473386,0.473386 v 1.0982555 h -1.789399 l 1.931415,-4.1184582 c 0.0284,-0.056806 0.04734,-0.1230804 0.04734,-0.1988221 0,-0.2556285 -0.217757,-0.473386 -0.473386,-0.473386 -0.179887,0 -0.369241,0.1230803 -0.426047,0.2745639 l -2.054495,4.3835543 c -0.03787,0.056806 -0.04734,0.1230804 -0.04734,0.1988222 z"
             id="path1621" />
          <path
             d="m 52.943716,-3.247428 c 0,1.8462054 0.473386,3.37050836 2.36693,3.37050836 0.09468,0 0.179886,0.009468 0.274563,0.009468 0.04734,0 0.09468,-0.009468 0.142016,-0.009468 C 57.260996,0 57.677576,-1.6379156 57.677576,-3.247428 c 0,-2.1775756 -0.189355,-4.0711196 -2.36693,-4.0711196 -2.196511,0 -2.36693,1.8840763 -2.36693,4.0711196 z m 0.946772,0 c 0,-0.7195467 0,-1.5527061 0.142015,-2.1397047 0.160952,-0.6532727 0.473386,-0.9846429 1.278143,-0.9846429 0.151483,0 0.359773,0 0.444982,0.018936 0.927837,0.1798866 0.975176,1.5053674 0.975176,2.669897 v 0.4355151 c 0,1.0225138 -0.123081,2.42373636 -1.211869,2.42373636 h -0.208289 c -0.151484,0 -0.359774,0 -0.454451,-0.0189354 C 54.013568,-1.0225138 53.890488,-2.2911882 53.890488,-3.247428 Z"
             id="path1623" />
          <path
             d="m 58.896844,-2.1681079 c 0.0284,1.37281942 0.975176,2.29118826 2.36693,2.29118826 1.391755,0 2.36693,-0.93730428 2.36693,-2.29118826 0,-1.486432 -0.899433,-2.4426718 -2.36693,-2.4426718 -0.208289,0 -0.407112,0.018936 -0.586998,0.066274 0.482853,-0.710079 1.069852,-1.3349485 1.637915,-1.9503503 0.07574,-0.085209 0.123081,-0.1988222 0.123081,-0.3219025 0,-0.2556285 -0.217758,-0.473386 -0.473386,-0.473386 -0.123081,0 -0.255629,0.047339 -0.340838,0.1420158 -0.738482,0.8047562 -1.486432,1.6189801 -2.063963,2.5752198 -0.359774,0.6154018 -0.662741,1.353884 -0.662741,2.300656 z m 0.946772,0 c 0,-0.9278366 0.50179,-1.4958998 1.420158,-1.4958998 0.946772,0 1.420158,0.5491278 1.420158,1.4958998 0,0.8331594 -0.577531,1.34441626 -1.420158,1.34441626 -0.852094,0 -1.420158,-0.50178916 -1.420158,-1.34441626 z"
             id="path1625" />
          <path
             d="m 65.095745,-0.35030564 c 0,0.26509616 0.217757,0.473386 0.473386,0.473386 1.013046,0 2.063963,-0.17041896 2.830848,-0.8520948 0.41658,-0.37870876 0.804756,-0.98464286 0.804756,-1.70418956 0,-1.6379156 -1.145594,-2.4237364 -2.802445,-2.4237364 h -0.142016 l 0.07574,-1.3728194 h 2.338527 c 0.255628,0 0.473386,-0.2272253 0.473386,-0.473386 0,-0.2556284 -0.20829,-0.473386 -0.473386,-0.473386 h -2.78351 c -0.255628,0 -0.45445,0.1893544 -0.473386,0.4449829 l -0.132548,2.3763977 v 0.028403 c 0,0.2461608 0.227226,0.4449829 0.473386,0.4449829 h 0.03787 c 0.198822,-0.018935 0.407112,-0.028403 0.605934,-0.028403 0.615402,0 1.221336,0.1041449 1.543239,0.473386 0.24616,0.2650962 0.312434,0.6343373 0.312434,1.0035784 0,0.2082898 -0.06627,0.4071119 -0.160951,0.5869986 -0.45445,0.8047562 -1.533771,1.02251376 -2.527881,1.02251376 -0.255629,0 -0.473386,0.20828984 -0.473386,0.473386 z"
             id="path1627" />
          <path
             d="m 70.80232,-3.247428 c 0,1.8462054 0.473386,3.37050836 2.36693,3.37050836 0.09468,0 0.179887,0.009468 0.274564,0.009468 0.04734,0 0.09468,-0.009468 0.142016,-0.009468 C 75.1196,0 75.53618,-1.6379156 75.53618,-3.247428 c 0,-2.1775756 -0.189354,-4.0711196 -2.36693,-4.0711196 -2.196511,0 -2.36693,1.8840763 -2.36693,4.0711196 z m 0.946772,0 c 0,-0.7195467 0,-1.5527061 0.142016,-2.1397047 0.160951,-0.6532727 0.473386,-0.9846429 1.278142,-0.9846429 0.151484,0 0.359773,0 0.444983,0.018936 0.927836,0.1798866 0.975175,1.5053674 0.975175,2.669897 v 0.4355151 c 0,1.0225138 -0.12308,2.42373636 -1.211868,2.42373636 h -0.20829 c -0.151483,0 -0.359773,0 -0.454451,-0.0189354 C 71.872172,-1.0225138 71.749092,-2.2911882 71.749092,-3.247428 Z"
             id="path1629" />
          <path
             d="m 76.755056,-4.8664081 c 0,1.2686745 0.918369,2.2817205 2.36693,2.2817205 0.189354,0 0.388176,-0.00947 0.577531,-0.037871 -0.444983,0.7006112 -0.984643,1.3349485 -1.600045,1.89354396 -0.09468,0.0946772 -0.151483,0.20828984 -0.151483,0.35030564 0,0.26509616 0.217757,0.473386 0.473386,0.473386 0.113612,0 0.227225,-0.0473386 0.312434,-0.12308036 0.785821,-0.70061128 1.448562,-1.52430294 1.988222,-2.43320404 0.397644,-0.6911436 0.766885,-1.4106903 0.766885,-2.4048009 0,-1.4958998 -1.041449,-2.4521395 -2.36693,-2.4521395 -1.325481,0 -2.36693,1.117191 -2.36693,2.4521397 z m 0.946772,0 c 0,-0.8142239 0.615402,-1.5053675 1.420158,-1.5053675 0.842627,0 1.420158,0.5680632 1.420158,1.5053675 0,0.236693 -0.03787,0.4639183 -0.09468,0.6816758 -0.160952,0.5207246 -0.74795,0.6532727 -1.325481,0.6532727 -0.880498,0 -1.420158,-0.5491277 -1.420158,-1.3349485 z"
             id="path1631" />
          <path
             d="m 82.707799,-2.0260921 c 0,0.2650962 0.217758,0.473386 0.473386,0.473386 h 2.338527 v 1.1739973 c 0,0.25562844 0.217758,0.473386 0.473386,0.473386 0.255629,0 0.473386,-0.21775756 0.473386,-0.473386 v -1.1739973 h 0.501789 c 0.255629,0 0.473386,-0.2177575 0.473386,-0.473386 0,-0.2556284 -0.208289,-0.473386 -0.473386,-0.473386 h -0.501789 v -1.0982555 c 0,-0.2556285 -0.217757,-0.473386 -0.473386,-0.473386 -0.255628,0 -0.473386,0.2177575 -0.473386,0.473386 v 1.0982555 h -1.789399 l 1.931415,-4.1184582 c 0.0284,-0.056806 0.04734,-0.1230804 0.04734,-0.1988221 0,-0.2556285 -0.217758,-0.473386 -0.473386,-0.473386 -0.179887,0 -0.369241,0.1230803 -0.426048,0.2745639 l -2.054495,4.3835543 c -0.03787,0.056806 -0.04734,0.1230804 -0.04734,0.1988222 z"
             id="path1633" />
        </g>
      </g>
      <path
         d="m 969.73,60.9453 h 7.657 V 583.652 H 969.73 V 60.9453"
         style="fill:#000000;fill-opacity:1;fill-rule:nonzero;stroke:none"
         id="path1006" />
      <path
         d="M 986.738,60.9453 H 1002.9 V 583.652 H 986.738 V 60.9453"
         style="fill:#000000;fill-opacity:1;fill-rule:nonzero;stroke:none"
         id="path1008" />
      <path
         d="m 1029.26,60.9453 h 7.65 V 583.652 h -7.65 V 60.9453"
         style="fill:#000000;fill-opacity:1;fill-rule:nonzero;stroke:none"
         id="path1010" />
      <path
         d="m 1046.27,60.9453 h 16.16 V 583.652 h -16.16 V 60.9453"
         style="fill:#000000;fill-opacity:1;fill-rule:nonzero;stroke:none"
         id="path1012" />
      <path
         d="m 1071.78,60.9453 h 7.65 V 583.652 h -7.65 V 60.9453"
         style="fill:#000000;fill-opacity:1;fill-rule:nonzero;stroke:none"
         id="path1014" />
      <path
         d="m 1088.79,60.9453 h 7.65 V 583.652 h -7.65 V 60.9453"
         style="fill:#000000;fill-opacity:1;fill-rule:nonzero;stroke:none"
         id="path1016" />
      <path
         d="m 1114.3,60.9453 h 24.66 V 583.652 H 1114.3 V 60.9453"
         style="fill:#000000;fill-opacity:1;fill-rule:nonzero;stroke:none"
         id="path1018" />
      <path
         d="m 1148.32,60.9453 h 7.65 V 583.652 h -7.65 V 60.9453"
         style="fill:#000000;fill-opacity:1;fill-rule:nonzero;stroke:none"
         id="path1020" />
      <path
         d="m 1182.33,60.9453 h 16.16 V 583.652 h -16.16 V 60.9453"
         style="fill:#000000;fill-opacity:1;fill-rule:nonzero;stroke:none"
         id="path1022" />
      <path
         d="m 1207.84,60.9453 h 7.66 V 583.652 h -7.66 V 60.9453"
         style="fill:#000000;fill-opacity:1;fill-rule:nonzero;stroke:none"
         id="path1024" />
      <path
         d="m 1224.85,60.9453 h 7.65 V 583.652 h -7.65 V 60.9453"
         style="fill:#000000;fill-opacity:1;fill-rule:nonzero;stroke:none"
         id="path1026" />
      <path
         d="m 1241.86,60.9453 h 7.65 V 583.652 h -7.65 V 60.9453"
         style="fill:#000000;fill-opacity:1;fill-rule:nonzero;stroke:none"
         id="path1028" />
      <path
         d="m 1267.37,60.9453 h 24.66 V 583.652 h -24.66 V 60.9453"
         style="fill:#000000;fill-opacity:1;fill-rule:nonzero;stroke:none"
         id="path1030" />
      <path
         d="m 1301.39,60.9453 h 7.65 V 583.652 h -7.65 V 60.9453"
         style="fill:#000000;fill-opacity:1;fill-rule:nonzero;stroke:none"
         id="path1032" />
      <path
         d="m 1335.4,60.9453 h 16.16 V 583.652 H 1335.4 V 60.9453"
         style="fill:#000000;fill-opacity:1;fill-rule:nonzero;stroke:none"
         id="path1034" />
      <path
         d="m 1360.91,60.9453 h 7.66 V 583.652 h -7.66 V 60.9453"
         style="fill:#000000;fill-opacity:1;fill-rule:nonzero;stroke:none"
         id="path1036" />
      <g
         id="g1038"
         transform="scale(10)">
        <g
           aria-label="90000&gt;"
           transform="matrix(1,0,0,-1,100.346,61.166)"
           id="text1042"
           style="font-variant:normal;font-weight:normal;font-size:9.46772px;font-family:OCRB;-inkscape-font-specification:OCRB;writing-mode:lr-tb;fill:#000000;fill-opacity:1;fill-rule:nonzero;stroke:none">
          <path
             d="m 1.0698524,-4.8664081 c 0,1.2686745 0.9183688,2.2817205 2.36693,2.2817205 0.1893544,0 0.3881765,-0.00947 0.5775309,-0.037871 -0.4449828,0.7006112 -0.9846429,1.3349485 -1.6000447,1.89354396 -0.094677,0.0946772 -0.1514835,0.20828984 -0.1514835,0.35030564 0,0.26509616 0.2177575,0.473386 0.473386,0.473386 0.1136126,0 0.2272253,-0.0473386 0.3124348,-0.12308036 0.7858207,-0.70061128 1.4485611,-1.52430294 1.9882212,-2.43320404 0.3976442,-0.6911436 0.7668853,-1.4106903 0.7668853,-2.4048009 0,-1.4958998 -1.0414492,-2.4521395 -2.36693,-2.4521395 -1.3254808,0 -2.36693,1.117191 -2.36693,2.4521397 z m 0.946772,0 c 0,-0.8142239 0.6154018,-1.5053675 1.420158,-1.5053675 0.8426271,0 1.420158,0.5680632 1.420158,1.5053675 0,0.236693 -0.037871,0.4639183 -0.094677,0.6816758 -0.1609513,0.5207246 -0.7479499,0.6532727 -1.3254808,0.6532727 -0.880498,0 -1.420158,-0.5491277 -1.4201582,-1.3349485 z"
             id="path1636" />
          <path
             d="m 8.7233667,-3.247428 c 0,1.8462054 0.4733861,3.37050836 2.3669303,3.37050836 0.09468,0 0.179886,0.009468 0.274564,0.009468 0.04734,0 0.09468,-0.009468 0.142015,-0.009468 C 13.040647,0 13.457227,-1.6379156 13.457227,-3.247428 c 0,-2.1775756 -0.189355,-4.0711196 -2.36693,-4.0711196 -2.1965113,0 -2.3669303,1.8840763 -2.3669303,4.0711196 z m 0.9467721,0 c 0,-0.7195467 0,-1.5527061 0.1420158,-2.1397047 0.1609512,-0.6532727 0.4733864,-0.9846429 1.2781424,-0.9846429 0.151483,0 0.359773,0 0.444983,0.018936 0.927836,0.1798866 0.975175,1.5053674 0.975175,2.669897 v 0.4355151 c 0,1.0225138 -0.123081,2.42373636 -1.211868,2.42373636 h -0.20829 c -0.151484,0 -0.359774,0 -0.454451,-0.0189354 C 9.7932191,-1.0225138 9.6701388,-2.2911882 9.6701388,-3.247428 Z"
             id="path1638" />
          <path
             d="m 16.376881,-3.247428 c 0,1.8462054 0.473386,3.37050836 2.36693,3.37050836 0.09468,0 0.179887,0.009468 0.274564,0.009468 0.04734,0 0.09468,-0.009468 0.142016,-0.009468 C 20.694161,0 21.110741,-1.6379156 21.110741,-3.247428 c 0,-2.1775756 -0.189354,-4.0711196 -2.36693,-4.0711196 -2.196511,0 -2.36693,1.8840763 -2.36693,4.0711196 z m 0.946772,0 c 0,-0.7195467 0,-1.5527061 0.142016,-2.1397047 0.160951,-0.6532727 0.473386,-0.9846429 1.278142,-0.9846429 0.151484,0 0.359774,0 0.444983,0.018936 0.927837,0.1798866 0.975175,1.5053674 0.975175,2.669897 v 0.4355151 c 0,1.0225138 -0.12308,2.42373636 -1.211868,2.42373636 h -0.20829 c -0.151483,0 -0.359773,0 -0.45445,-0.0189354 C 17.446733,-1.0225138 17.323653,-2.2911882 17.323653,-3.247428 Z"
             id="path1640" />
          <path
             d="m 24.030397,-3.247428 c 0,1.8462054 0.473386,3.37050836 2.36693,3.37050836 0.09468,0 0.179887,0.009468 0.274564,0.009468 0.04734,0 0.09468,-0.009468 0.142016,-0.009468 C 28.347677,0 28.764257,-1.6379156 28.764257,-3.247428 c 0,-2.1775756 -0.189354,-4.0711196 -2.36693,-4.0711196 -2.196511,0 -2.36693,1.8840763 -2.36693,4.0711196 z m 0.946772,0 c 0,-0.7195467 0,-1.5527061 0.142016,-2.1397047 0.160951,-0.6532727 0.473386,-0.9846429 1.278142,-0.9846429 0.151483,0 0.359773,0 0.444983,0.018936 0.927836,0.1798866 0.975175,1.5053674 0.975175,2.669897 v 0.4355151 c 0,1.0225138 -0.12308,2.42373636 -1.211868,2.42373636 h -0.20829 c -0.151484,0 -0.359773,0 -0.454451,-0.0189354 C 25.100249,-1.0225138 24.977169,-2.2911882 24.977169,-3.247428 Z"
             id="path1642" />
          <path
             d="m 31.68391,-3.247428 c 0,1.8462054 0.473386,3.37050836 2.36693,3.37050836 0.09468,0 0.179887,0.009468 0.274564,0.009468 0.04734,0 0.09468,-0.009468 0.142016,-0.009468 C 36.00119,0 36.41777,-1.6379156 36.41777,-3.247428 c 0,-2.1775756 -0.189354,-4.0711196 -2.36693,-4.0711196 -2.196511,0 -2.36693,1.8840763 -2.36693,4.0711196 z m 0.946772,0 c 0,-0.7195467 0,-1.5527061 0.142016,-2.1397047 0.160951,-0.6532727 0.473386,-0.9846429 1.278142,-0.9846429 0.151483,0 0.359773,0 0.444983,0.018936 0.927836,0.1798866 0.975175,1.5053674 0.975175,2.669897 v 0.4355151 c 0,1.0225138 -0.12308,2.42373636 -1.211868,2.42373636 h -0.20829 c -0.151484,0 -0.359773,0 -0.454451,-0.0189354 C 32.753762,-1.0225138 32.630682,-2.2911882 32.630682,-3.247428 Z"
             id="path1644" />
          <path
             d="m 39.337427,-1.0793201 c 0,0.26509618 0.217757,0.47338602 0.473386,0.47338602 0.09468,0 0.179886,-0.0284032 0.265096,-0.0852095 l 3.86283,-2.56575212 c 0.104145,-0.066274 0.132548,-0.2177576 0.132548,-0.3408379 0,-0.1230804 -0.03787,-0.2556285 -0.132548,-0.3408379 l -3.86283,-2.5657522 c -0.08521,-0.056806 -0.170419,-0.085209 -0.265096,-0.085209 -0.255629,0 -0.473386,0.2082898 -0.473386,0.473386 0,0.132548 0.04734,0.2461607 0.132548,0.3408379 l 3.266363,2.1775756 -3.266363,2.1775756 c -0.08521,0.094677 -0.132548,0.2082898 -0.132548,0.3408375 z"
             id="path1646" />
        </g>
        <g
           aria-label="ISBN 979-8-234-06509-4"
           transform="matrix(1,0,0,-1,9.3538,71.5906)"
           id="text1046"
           style="font-variant:normal;font-weight:normal;font-size:8.05297px;font-family:OCRB;-inkscape-font-specification:OCRB;writing-mode:lr-tb;fill:#000000;fill-opacity:1;fill-rule:nonzero;stroke:none">
          <path
             d="m 1.3690049,-0.41070147 c 0,0.21743019 0.1852183,0.4026485 0.4026485,0.4026485 h 2.3031494 c 0.2174302,0 0.4026485,-0.18521831 0.4026485,-0.4026485 0,-0.21743018 -0.1771654,-0.40264849 -0.4026485,-0.40264849 H 3.3258766 V -4.8398349 h 0.5878668 c 0.2174302,0 0.4026485,-0.1852183 0.4026485,-0.4026485 0,-0.2174302 -0.1771654,-0.4026485 -0.4026485,-0.4026485 H 1.9327128 c -0.2254832,0 -0.4026485,0.1852183 -0.4026485,0.4026485 0,0.2174302 0.1852183,0.4026485 0.4026485,0.4026485 h 0.5878668 v 4.02648494 H 1.7716534 c -0.2254832,0 -0.4026485,0.18521831 -0.4026485,0.40264849 z"
             id="path1649" />
          <path
             d="m 6.9819252,-1.2321044 c 0.096636,0.78919105 0.8214029,1.35289895 1.6669648,1.35289895 0.1046886,0 0.2093772,-0.008053 0.3221188,-0.02415891 0.8455618,-0.12079455 1.4897992,-0.74087323 1.4897992,-1.61864694 0,-1.2723693 -1.1596275,-1.5783821 -2.0132423,-2.0051895 C 8.1496058,-3.6963132 7.83554,-3.8654256 7.83554,-4.3244449 c 0,-0.4107014 0.4751252,-0.6120257 0.8938797,-0.6361846 0.265748,0 0.4912311,0.048318 0.6522905,0.1852183 0.2174302,0.1852183 0.2174302,0.6200787 0.6039728,0.6200787 0.225483,0 0.402648,-0.1852183 0.402648,-0.4026485 0,-0.032212 -0.0081,-0.072477 -0.01611,-0.1046886 -0.185219,-0.6683965 -0.7730856,-1.1032569 -1.6105944,-1.1032569 h -0.048318 c -0.8858267,0.016106 -1.6830707,0.5798139 -1.6830707,1.4414816 0,1.2321044 1.1354688,1.5461703 1.9649247,1.9649247 0.3301717,0.1691124 0.6603435,0.3462777 0.6603435,0.8375089 0,0.2335361 -0.096636,0.4670722 -0.273801,0.6120257 -0.1932712,0.14495346 -0.4590192,0.21743019 -0.7086613,0.21743019 -0.4268074,0 -0.8294559,-0.20937722 -0.8858267,-0.65229059 -0.040265,-0.1852183 -0.1932713,-0.3462777 -0.4026485,-0.3462777 -0.2174302,0 -0.4026485,0.1852183 -0.4026485,0.4026485 z"
             id="path1651" />
          <path
             d="m 12.506263,-0.41070147 c 0,0.22548316 0.185218,0.4026485 0.402648,0.4026485 h 1.377058 c 0.579814,0 1.175734,-0.04831782 1.6267,-0.4026485 0.402649,-0.30601285 0.620079,-0.78919103 0.620079,-1.28847523 -0.0081,-0.4912311 -0.225483,-0.9502504 -0.603973,-1.2482103 0.330172,-0.2899069 0.483178,-0.6925554 0.483178,-1.0952039 0,-0.547602 -0.281854,-1.0871509 -0.773085,-1.3690049 -0.410701,-0.2254832 -0.885827,-0.2335361 -1.352899,-0.2335361 h -1.377058 c -0.225483,0 -0.402648,0.1771653 -0.402648,0.4026485 z M 13.31156,-0.81334996 V -2.5447385 h 1.207945 c 0.644238,0 1.19184,0.2254832 1.207946,0.8455618 0,0.74087328 -0.740873,0.88582674 -1.441482,0.88582674 z m 0,-2.53668554 v -1.4897994 h 0.974409 c 0.700609,0 1.264316,0.088583 1.32874,0.7247673 v 0.056371 c 0,0.5637078 -0.547602,0.7086613 -1.095204,0.7086613 z"
             id="path1653" />
          <path
             d="m 18.417142,-0.3221188 c 0,0.21743019 0.185218,0.4026485 0.402649,0.4026485 0.21743,0 0.402648,-0.18521831 0.402648,-0.4026485 v -3.8654256 l 1.92466,4.04259094 c 0.06442,0.12884752 0.201324,0.22548316 0.362384,0.22548316 h 0.306012 c 0.209378,0 0.402649,-0.18521831 0.402649,-0.4026485 v -5.0170003 c 0,-0.2174302 -0.193271,-0.4026485 -0.402649,-0.4026485 -0.21743,0 -0.402648,0.1771654 -0.402648,0.4026485 v 3.8734786 L 19.480134,-5.5082314 C 19.41571,-5.637079 19.27881,-5.7417676 19.11775,-5.7417676 h -0.297959 c -0.217431,0 -0.402649,0.1852183 -0.402649,0.4026485 z"
             id="path1655" />
          <path
             d="m 29.900678,-4.1392265 c 0,1.0790979 0.781138,1.9407657 2.013242,1.9407657 0.16106,0 0.330172,-0.00805 0.491231,-0.032212 -0.378489,0.5959198 -0.837508,1.1354688 -1.360952,1.61059402 -0.08053,0.0805297 -0.128847,0.17716533 -0.128847,0.29795988 0,0.22548316 0.185218,0.4026485 0.402648,0.4026485 0.09664,0 0.193272,-0.04026485 0.265748,-0.10468861 0.668397,-0.59591977 1.232105,-1.29652819 1.691124,-2.06961329 0.338225,-0.5878668 0.652291,-1.1998925 0.652291,-2.0454543 0,-1.2723693 -0.885827,-2.0857193 -2.013243,-2.0857193 -1.127416,0 -2.013242,0.9502505 -2.013242,2.0857194 z m 0.805297,0 c 0,-0.6925555 0.523443,-1.2804223 1.207945,-1.2804223 0.716715,0 1.207946,0.4831782 1.207946,1.2804223 0,0.2013242 -0.03221,0.3945955 -0.08053,0.5798138 -0.1369,0.4429133 -0.636185,0.5556549 -1.127416,0.5556549 -0.748926,0 -1.207945,-0.4670722 -1.207945,-1.1354687 z"
             id="path1657" />
          <path
             d="m 35.698815,-5.7015027 c 0,0.2174302 0.185219,0.4026485 0.402649,0.4026485 h 2.73801 c -0.06442,0.1691124 -0.169113,0.3221188 -0.265748,0.4670722 -0.386543,0.5637079 -0.877774,1.0468861 -1.215999,1.6428059 -0.491231,0.8616678 -0.644237,1.868289 -0.644237,2.8668573 0,0.22548316 0.185218,0.4026485 0.402648,0.4026485 0.21743,0 0.402649,-0.18521831 0.402649,-0.4026485 0,-0.8536148 0.112741,-1.7233356 0.539549,-2.4722618 0.330171,-0.5717608 0.81335,-1.0388331 1.183786,-1.5783821 0.265748,-0.4026485 0.483178,-0.8455618 0.483178,-1.32874 0,-0.2174302 -0.177165,-0.4026485 -0.402648,-0.4026485 h -3.221188 c -0.225483,0 -0.402649,0.1771653 -0.402649,0.4026485 z"
             id="path1659" />
          <path
             d="m 41.496953,-4.1392265 c 0,1.0790979 0.781138,1.9407657 2.013243,1.9407657 0.161059,0 0.330171,-0.00805 0.491231,-0.032212 -0.37849,0.5959198 -0.837509,1.1354688 -1.360952,1.61059402 -0.08053,0.0805297 -0.128848,0.17716533 -0.128848,0.29795988 0,0.22548316 0.185219,0.4026485 0.402649,0.4026485 0.09663,0 0.193271,-0.04026485 0.265748,-0.10468861 0.668396,-0.59591977 1.232104,-1.29652819 1.691123,-2.06961329 0.338225,-0.5878668 0.652291,-1.1998925 0.652291,-2.0454543 0,-1.2723693 -0.885827,-2.0857193 -2.013242,-2.0857193 -1.127416,0 -2.013243,0.9502505 -2.013243,2.0857194 z m 0.805297,0 c 0,-0.6925555 0.523443,-1.2804223 1.207946,-1.2804223 0.716714,0 1.207945,0.4831782 1.207945,1.2804223 0,0.2013242 -0.03221,0.3945955 -0.08053,0.5798138 -0.1369,0.4429133 -0.636184,0.5556549 -1.127415,0.5556549 -0.748927,0 -1.207946,-0.4670722 -1.207946,-1.1354687 z"
             id="path1661" />
          <path
             d="m 47.295095,-2.947387 c 0,0.2254832 0.177165,0.4026485 0.402648,0.4026485 h 3.221188 c 0.225483,0 0.402649,-0.1852183 0.402649,-0.4026485 v -0.2254832 c 0,-0.2174301 -0.177166,-0.4026485 -0.402649,-0.4026485 h -3.221188 c -0.225483,0 -0.402648,0.1771654 -0.402648,0.4026485 z"
             id="path1663" />
          <path
             d="m 53.093232,-1.610594 c 0,1.02272719 0.853615,1.71528261 2.013243,1.71528261 0.07248,0 0.144953,0.008053 0.209377,0.008053 0.03221,0 0.06442,0 0.09664,-0.008053 h 0.06442 c 0.950251,-0.08858267 1.642806,-0.86972075 1.642806,-1.71528261 0,-0.789191 -0.555655,-1.3770578 -1.16768,-1.7958123 0.499284,-0.3140658 0.893879,-0.7167143 0.893879,-1.4253757 0,-0.8455618 -0.893879,-1.3931638 -1.739441,-1.3931638 -0.853615,0 -1.739442,0.539549 -1.739442,1.3931638 0,0.7086614 0.402649,1.1274158 0.901933,1.4253757 -0.620079,0.4187545 -1.175734,0.9985683 -1.175734,1.7958123 z m 0.797244,0 c 0,-0.6683965 0.724768,-1.1032569 1.232105,-1.3609519 0.523443,0.273801 1.191839,0.7247673 1.191839,1.3609519 0,0.4992841 -0.475125,0.90998562 -1.038833,0.90998562 h -0.169112 c -0.660344,0 -1.215999,-0.31406582 -1.215999,-0.90998562 z m 0.281854,-3.221188 c 0,-0.4107014 0.563708,-0.5878668 0.934145,-0.5878668 0.370436,0 0.934144,0.1771654 0.934144,0.5878668 0,0.539549 -0.475125,0.7569792 -0.934144,0.9583035 C 54.647455,-4.0748028 54.17233,-4.292233 54.17233,-4.831782 Z"
             id="path1665" />
          <path
             d="m 58.89137,-2.947387 c 0,0.2254832 0.177165,0.4026485 0.402648,0.4026485 h 3.221188 c 0.225484,0 0.402649,-0.1852183 0.402649,-0.4026485 v -0.2254832 c 0,-0.2174301 -0.177165,-0.4026485 -0.402649,-0.4026485 h -3.221188 c -0.225483,0 -0.402648,0.1771654 -0.402648,0.4026485 z"
             id="path1667" />
          <path
             d="m 64.826408,-5.3954899 c 0,0.2093773 0.193271,0.3945956 0.402649,0.3945956 0.08053,0 0.161059,-0.032212 0.233536,-0.072477 0.346277,-0.257695 0.708661,-0.3462777 1.240157,-0.3462777 0.547602,0 0.998568,0.3462777 0.998568,0.9099856 0,0.2174302 -0.08858,0.4187545 -0.21743,0.5878668 -0.21743,0.289907 -0.636185,0.555655 -0.998568,0.7891911 -0.644238,0.4107015 -1.280422,0.9099856 -1.4898,1.6428059 -0.07248,0.249642 -0.08053,0.59591974 -0.08053,0.90998556 v 0.16911237 c 0,0.21743019 0.185218,0.4026485 0.402648,0.4026485 h 2.834646 c 0.21743,0 0.402648,-0.18521831 0.402648,-0.4026485 0,-0.21743018 -0.177165,-0.40264849 -0.402648,-0.40264849 H 65.72834 c 0.04832,-0.93414454 0.555655,-1.24015734 1.191839,-1.64280584 0.684503,-0.4348604 1.586435,-0.9905153 1.586435,-2.0535074 0,-1.0307801 -0.781138,-1.7152826 -1.803865,-1.7152826 -0.740873,0 -1.215998,0.1449535 -1.70723,0.4912312 -0.104688,0.056371 -0.169112,0.2174302 -0.169112,0.3382247 z"
             id="path1669" />
          <path
             d="m 70.487645,-0.55565493 c 0,0.58786681 1.159628,0.66034354 1.642806,0.66034354 1.240157,0 2.262885,-0.70866135 2.311202,-1.92465981 v -0.1288475 c 0,-0.9985683 -0.700608,-1.618647 -1.602541,-1.8521831 l 1.280423,-1.352899 c 0.07248,-0.072477 0.120794,-0.1610594 0.120794,-0.265748 v -0.2818539 c 0,-0.2174302 -0.185218,-0.4026485 -0.402648,-0.4026485 h -2.923228 c -0.225484,0 -0.402649,0.1771653 -0.402649,0.4026485 0,0.2174302 0.185218,0.4026485 0.402649,0.4026485 h 2.246778 l -1.481746,1.5542232 c -0.06442,0.064424 -0.08858,0.1610594 -0.08858,0.249642 0,0.2174302 0.185218,0.4026485 0.402649,0.4026485 0.821403,0 1.642805,0.3221188 1.642805,1.1596277 v 0.072477 c -0.04026,0.7972441 -0.716714,1.15962772 -1.505905,1.15962772 -0.370437,0 -0.740873,-0.0724767 -1.087151,-0.22548316 -0.04832,-0.0161059 -0.09664,-0.0322119 -0.153006,-0.0322119 -0.21743,0 -0.402649,0.17716534 -0.402649,0.40264849 z"
             id="path1671" />
          <path
             d="m 76.285787,-1.7233356 c 0,0.2254832 0.185218,0.4026485 0.402648,0.4026485 h 1.989084 v 0.9985683 c 0,0.21743019 0.185218,0.4026485 0.402648,0.4026485 0.21743,0 0.402649,-0.18521831 0.402649,-0.4026485 v -0.9985683 h 0.426807 c 0.21743,0 0.402649,-0.1852183 0.402649,-0.4026485 0,-0.2174302 -0.177166,-0.4026485 -0.402649,-0.4026485 h -0.426807 v -0.9341445 c 0,-0.2174302 -0.185219,-0.4026485 -0.402649,-0.4026485 -0.21743,0 -0.402648,0.1852183 -0.402648,0.4026485 v 0.9341445 h -1.522012 l 1.642806,-3.5030419 c 0.02416,-0.048318 0.04027,-0.1046886 0.04027,-0.1691124 0,-0.2174301 -0.185218,-0.4026484 -0.402648,-0.4026484 -0.153007,0 -0.314066,0.1046886 -0.362384,0.2335361 l -1.747494,3.7285251 c -0.03221,0.048318 -0.04027,0.1046886 -0.04027,0.1691123 z"
             id="path1673" />
          <path
             d="m 82.083921,-2.947387 c 0,0.2254832 0.177165,0.4026485 0.402648,0.4026485 h 3.221188 c 0.225483,0 0.402649,-0.1852183 0.402649,-0.4026485 v -0.2254832 c 0,-0.2174301 -0.177166,-0.4026485 -0.402649,-0.4026485 h -3.221188 c -0.225483,0 -0.402648,0.1771654 -0.402648,0.4026485 z"
             id="path1675" />
          <path
             d="m 87.882062,-2.7621687 c 0,1.5703291 0.402649,2.86685731 2.013243,2.86685731 0.08053,0 0.153006,0.008053 0.233536,0.008053 0.04026,0 0.08053,-0.008053 0.120794,-0.008053 C 91.554216,0 91.908547,-1.3931638 91.908547,-2.7621687 c 0,-1.8521831 -0.161059,-3.4627771 -2.013242,-3.4627771 -1.86829,0 -2.013243,1.6025411 -2.013243,3.4627771 z m 0.805297,0 c 0,-0.6120257 0,-1.3206871 0.120795,-1.8199712 0.1369,-0.5556549 0.402648,-0.8375089 1.087151,-0.8375089 0.128847,0 0.306012,0 0.378489,0.016106 0.789191,0.1530064 0.829456,1.2804222 0.829456,2.2709375 v 0.3704366 c 0,0.8697208 -0.104689,2.06156032 -1.03078,2.06156032 h -0.177165 c -0.128848,0 -0.306013,0 -0.386543,-0.0161059 -0.716714,-0.15300643 -0.821403,-1.23210442 -0.821403,-2.04545442 z"
             id="path1677" />
          <path
             d="m 93.680203,-1.8441301 c 0.02416,1.16768063 0.829456,1.94881871 2.013243,1.94881871 1.183787,0 2.013242,-0.79724402 2.013242,-1.94881871 0,-1.2643163 -0.765032,-2.0776663 -2.013242,-2.0776663 -0.177165,0 -0.346278,0.016106 -0.499284,0.056371 0.410701,-0.6039727 0.909985,-1.1354687 1.393164,-1.6589118 0.06442,-0.072477 0.104688,-0.1691123 0.104688,-0.273801 0,-0.2174301 -0.185218,-0.4026484 -0.402648,-0.4026484 -0.104689,0 -0.21743,0.040265 -0.289907,0.1207945 -0.628132,0.6845024 -1.264316,1.3770579 -1.755548,2.1904078 -0.306012,0.5234431 -0.563708,1.1515747 -0.563708,1.9568717 z m 0.805297,0 c 0,-0.7891911 0.426808,-1.2723693 1.207946,-1.2723693 0.805297,0 1.207945,0.4670723 1.207945,1.2723693 0,0.7086613 -0.491231,1.14352172 -1.207945,1.14352172 -0.724767,0 -1.207946,-0.42680742 -1.207946,-1.14352172 z"
             id="path1679" />
          <path
             d="m 99.687715,-0.29795989 c 0,0.22548316 0.185218,0.4026485 0.402645,0.4026485 0.86167,0 1.75555,-0.14495346 2.40784,-0.72476729 0.35433,-0.3221188 0.6845,-0.83750892 0.6845,-1.44953462 0,-1.3931638 -0.97441,-2.0615603 -2.38368,-2.0615603 h -0.12079 l 0.0644,-1.1676806 h 1.98909 c 0.21743,0 0.40265,-0.1932713 0.40265,-0.4026485 0,-0.2174302 -0.17717,-0.4026485 -0.40265,-0.4026485 h -2.36758 c -0.21743,0 -0.386539,0.1610594 -0.402644,0.3784896 l -0.112742,2.0212954 v 0.024159 c 0,0.2093773 0.193276,0.3784896 0.402646,0.3784896 h 0.0322 c 0.16912,-0.016106 0.34628,-0.024159 0.51539,-0.024159 0.52345,0 1.03884,0.088583 1.31264,0.4026485 0.20938,0.2254832 0.26575,0.539549 0.26575,0.8536148 0,0.1771654 -0.0564,0.3462777 -0.1369,0.4992842 -0.38655,0.68450241 -1.30459,0.86972072 -2.15015,0.86972072 -0.217427,0 -0.402645,0.17716533 -0.402645,0.40264849 z"
             id="path1681" />
          <path
             d="m 105.27648,-2.7621687 c 0,1.5703291 0.40265,2.86685731 2.01324,2.86685731 0.0805,0 0.15301,0.008053 0.23354,0.008053 0.0403,0 0.0805,-0.008053 0.12079,-0.008053 C 108.94863,0 109.30296,-1.3931638 109.30296,-2.7621687 c 0,-1.8521831 -0.16106,-3.4627771 -2.01324,-3.4627771 -1.86829,0 -2.01324,1.6025411 -2.01324,3.4627771 z m 0.8053,0 c 0,-0.6120257 0,-1.3206871 0.12079,-1.8199712 0.1369,-0.5556549 0.40265,-0.8375089 1.08715,-0.8375089 0.12885,0 0.30601,0 0.37849,0.016106 0.78919,0.1530064 0.82946,1.2804222 0.82946,2.2709375 v 0.3704366 c 0,0.8697208 -0.10469,2.06156032 -1.03078,2.06156032 h -0.17717 c -0.12885,0 -0.30601,0 -0.38654,-0.0161059 -0.71672,-0.15300643 -0.8214,-1.23210442 -0.8214,-2.04545442 z"
             id="path1683" />
          <path
             d="m 111.07461,-4.1392265 c 0,1.0790979 0.78114,1.9407657 2.01325,1.9407657 0.16105,0 0.33017,-0.00805 0.49123,-0.032212 -0.37849,0.5959198 -0.83751,1.1354688 -1.36096,1.61059402 -0.0805,0.0805297 -0.12884,0.17716533 -0.12884,0.29795988 0,0.22548316 0.18522,0.4026485 0.40265,0.4026485 0.0966,0 0.19327,-0.04026485 0.26574,-0.10468861 0.6684,-0.59591977 1.23211,-1.29652819 1.69113,-2.06961329 0.33822,-0.5878668 0.65229,-1.1998925 0.65229,-2.0454543 0,-1.2723693 -0.88583,-2.0857193 -2.01324,-2.0857193 -1.12742,0 -2.01325,0.9502505 -2.01325,2.0857194 z m 0.8053,0 c 0,-0.6925555 0.52344,-1.2804223 1.20795,-1.2804223 0.71671,0 1.20794,0.4831782 1.20794,1.2804223 0,0.2013242 -0.0322,0.3945955 -0.0805,0.5798138 -0.1369,0.4429133 -0.63618,0.5556549 -1.12741,0.5556549 -0.74893,0 -1.20795,-0.4670722 -1.20795,-1.1354687 z"
             id="path1685" />
          <path
             d="m 116.87275,-2.947387 c 0,0.2254832 0.17717,0.4026485 0.40265,0.4026485 h 3.22119 c 0.22548,0 0.40265,-0.1852183 0.40265,-0.4026485 v -0.2254832 c 0,-0.2174301 -0.17717,-0.4026485 -0.40265,-0.4026485 h -3.22119 c -0.22548,0 -0.40265,0.1771654 -0.40265,0.4026485 z"
             id="path1687" />
          <path
             d="m 122.6709,-1.7233356 c 0,0.2254832 0.18521,0.4026485 0.40264,0.4026485 h 1.98909 v 0.9985683 c 0,0.21743019 0.18522,0.4026485 0.40265,0.4026485 0.21743,0 0.40264,-0.18521831 0.40264,-0.4026485 v -0.9985683 h 0.42681 c 0.21743,0 0.40265,-0.1852183 0.40265,-0.4026485 0,-0.2174302 -0.17716,-0.4026485 -0.40265,-0.4026485 h -0.42681 v -0.9341445 c 0,-0.2174302 -0.18521,-0.4026485 -0.40264,-0.4026485 -0.21743,0 -0.40265,0.1852183 -0.40265,0.4026485 v 0.9341445 h -1.52201 l 1.6428,-3.5030419 c 0.0242,-0.048318 0.0403,-0.1046886 0.0403,-0.1691124 0,-0.2174301 -0.18522,-0.4026484 -0.40265,-0.4026484 -0.15301,0 -0.31407,0.1046886 -0.36239,0.2335361 l -1.74749,3.7285251 c -0.0322,0.048318 -0.0403,0.1046886 -0.0403,0.1691123 z"
             id="path1689" />
        </g>
      </g>
    </g>
    <text
       xml:space="preserve"
       id="text1057"
       style="font-size:8.46667px;line-height:1.25;font-family:'Noto Mono';-inkscape-font-specification:'Noto Mono';word-spacing:0px;white-space:pre;shape-inside:url(#rect1059);"
       transform="translate(3.6931496,32.699007)"><tspan
         x="148.61133"
         y="35.62072"><tspan
           style="font-style:normal;font-variant:normal;font-weight:normal;font-stretch:normal;font-family:'TeX Gyre Adventor';-inkscape-font-specification:'TeX Gyre Adventor'">THE MONTEREY PROTOCOLS</tspan></tspan></text>
    <text
       xml:space="preserve"
       id="text1069"
       style="font-size:6.35px;line-height:1.25;font-family:'Noto Mono';-inkscape-font-specification:'Noto Mono';word-spacing:0px;white-space:pre;shape-inside:url(#rect1071);"
       transform="translate(3.1295159,-14.007693)"><tspan
         x="161.75391"
         y="103.05685"><tspan
           style="font-style:normal;font-variant:normal;font-weight:normal;font-stretch:normal;font-size:6.35px;font-family:'TeX Gyre Adventor';-inkscape-font-specification:'TeX Gyre Adventor'">a novella for non-proliferation</tspan></tspan></text>
    <text
       xml:space="preserve"
       id="text1075"
       style="font-size:4.7625px;line-height:1.25;font-family:'Noto Mono';-inkscape-font-specification:'Noto Mono';word-spacing:0px;white-space:pre;shape-inside:url(#rect1077);"
       transform="translate(14.281374,78.301324)"><tspan
         x="35.757812"
         y="30.746736"><tspan
           style="font-style:normal;font-variant:normal;font-weight:normal;font-stretch:normal;font-size:4.7625px;font-family:'TeX Gyre Adventor';-inkscape-font-specification:'TeX Gyre Adventor'">[end transmission]</tspan></tspan></text>
    <text
       xml:space="preserve"
       id="text1081"
       style="font-size:3.175px;line-height:1.25;font-family:'Noto Mono';-inkscape-font-specification:'Noto Mono';word-spacing:0px;white-space:pre;shape-inside:url(#rect1083);"
       transform="rotate(90,98.179194,60.525823)"><tspan
         x="56.212891"
         y="19.735455"><tspan
           style="font-style:normal;font-variant:normal;font-weight:normal;font-stretch:normal;font-size:3.175px;font-family:'TeX Gyre Adventor';-inkscape-font-specification:'TeX Gyre Adventor'">2qx</tspan></tspan></text>
    <text
       xml:space="preserve"
       id="text1081-2"
       style="font-size:3.175px;line-height:1.25;font-family:'Noto Mono';-inkscape-font-specification:'Noto Mono';word-spacing:0px;white-space:pre;shape-inside:url(#rect1083-3);"
       transform="rotate(90,20.537559,137.9736)"><tspan
         x="56.212891"
         y="19.735455"><tspan
           style="font-style:normal;font-variant:normal;font-weight:normal;font-stretch:normal;font-family:'TeX Gyre Adventor';-inkscape-font-specification:'TeX Gyre Adventor'">2026</tspan></tspan></text>
  </g>
</svg>
