<?xml version="1.0" encoding="UTF-8" standalone="no"?>
<svg
   xmlns:dc="http://purl.org/dc/elements/1.1/"
   xmlns:cc="http://creativecommons.org/ns#"
   xmlns:rdf="http://www.w3.org/1999/02/22-rdf-syntax-ns#"
   xmlns:svg="http://www.w3.org/2000/svg"
   xmlns="http://www.w3.org/2000/svg"
   xmlns:xlink="http://www.w3.org/1999/xlink"
   xmlns:sodipodi="http://sodipodi.sourceforge.net/DTD/sodipodi-0.dtd"
   xmlns:inkscape="http://www.inkscape.org/namespaces/inkscape"
   width="1200"
   height="630"
   viewBox="0 0 317.5 166.6875"
   version="1.1"
   id="svg8"
   inkscape:version="1.0.2 (e86c870879, 2021-01-15)"
   sodipodi:docname="social_preview.svg"
   inkscape:export-filename="/home/amnesia/projects/monterey/assets/social.png"
   inkscape:export-xdpi="96"
   inkscape:export-ydpi="96">
  <defs
     id="defs2">
    <linearGradient
       inkscape:collect="always"
       id="linearGradient849">
      <stop
         style="stop-color:#2a2a2a;stop-opacity:1"
         offset="0"
         id="stop845" />
      <stop
         style="stop-color:#261736;stop-opacity:0.94621176"
         offset="1"
         id="stop847" />
    </linearGradient>
    <rect
       x="60.624176"
       y="-27.128567"
       width="157.51935"
       height="39.741421"
       id="rect839" />
    <linearGradient
       inkscape:collect="always"
       xlink:href="#linearGradient849"
       id="linearGradient851"
       x1="56.862488"
       y1="31.280672"
       x2="106.96118"
       y2="180.12827"
       gradientUnits="userSpaceOnUse" />
    <rect
       x="60.624176"
       y="-27.128567"
       width="165.28871"
       height="68.178694"
       id="rect839-3" />
    <rect
       x="60.624176"
       y="-27.128567"
       width="157.51935"
       height="39.741421"
       id="rect1860" />
    <rect
       x="70.878593"
       y="-14.780953"
       width="206.5692"
       height="108.70301"
       id="rect998" />
    <rect
       x="70.878593"
       y="-14.780953"
       width="206.5692"
       height="108.70301"
       id="rect1870" />
    <rect
       x="70.878593"
       y="-14.780953"
       width="206.5692"
       height="108.70301"
       id="rect998-2" />
    <rect
       x="70.878593"
       y="-14.780953"
       width="206.5692"
       height="108.70301"
       id="rect1873" />
  </defs>
  <sodipodi:namedview
     id="base"
     pagecolor="#ffffff"
     bordercolor="#666666"
     borderopacity="1.0"
     inkscape:pageopacity="0.0"
     inkscape:pageshadow="2"
     inkscape:zoom="0.80994671"
     inkscape:cx="474.86583"
     inkscape:cy="515.7143"
     inkscape:document-units="mm"
     inkscape:current-layer="layer1"
     inkscape:document-rotation="0"
     showgrid="false"
     units="px"
     inkscape:window-width="1920"
     inkscape:window-height="1176"
     inkscape:window-x="0"
     inkscape:window-y="0"
     inkscape:window-maximized="1"
     width="300mm"
     showguides="false"
     inkscape:guide-bbox="true">
    <sodipodi:guide
       position="152,210"
       orientation="1,0"
       id="guide869" />
    <sodipodi:guide
       position="148,0"
       orientation="1,0"
       id="guide3696" />
    <sodipodi:guide
       position="379.79255,199.63751"
       orientation="1,0"
       id="guide3703" />
    <sodipodi:guide
       position="226.03271,164.42138"
       orientation="1,0"
       id="guide3772" />
  </sodipodi:namedview>
  <metadata
     id="metadata5">
    <rdf:RDF>
      <cc:Work
         rdf:about="">
        <dc:format>image/svg+xml</dc:format>
        <dc:type
           rdf:resource="http://purl.org/dc/dcmitype/StillImage" />
        <dc:title />
      </cc:Work>
    </rdf:RDF>
  </metadata>
  <g
     inkscape:groupmode="layer"
     id="layer3"
     inkscape:label="Layer 3"
     style="display:inline" />
  <g
     inkscape:label="Layer 1"
     inkscape:groupmode="layer"
     id="layer1">
    <rect
       style="fill:#b19ec3;fill-opacity:1;stroke-width:0.265;stroke-linecap:round;stroke-linejoin:round;stroke-dasharray:3.18, 3.18000000000000016;stroke-dashoffset:2.64999;stroke-opacity:0.769065"
       id="rect833"
       width="318.08984"
       height="167.34206"
       x="0"
       y="0"
       inkscape:export-filename="/home/amnesia/projects/monterey/monterey_protocols_perfect_cover.png"
       inkscape:export-xdpi="600"
       inkscape:export-ydpi="600" />
    <path
       id="a"
       d="M -0.46203295,-19.760378 H 126.63996 l -2.50389,10.0541317 -10.01596,-2.5135317 V 2.8614087 l -10.01597,-7.5406 C 99.221415,8.2906367 90.081948,-6.5894693 89.080309,12.915541 79.715465,16.032318 81.092661,21.838573 81.568338,30.510263 L 69.048486,40.564394 c 0,0 7.511971,2.513533 7.511971,2.513533 L 71.552472,53.13205 c 19.856566,-1.457844 27.118131,8.068444 22.535807,27.648852 0,0 7.511961,2.513539 7.511961,2.513539 l -5.007961,5.02706 c 0,0 7.511861,2.51353 7.511861,2.51353 v 10.054129 c -6.835793,11.93928 1.62762,24.45667 15.02394,25.13532 -0.50101,-20.20879 18.27907,-24.35612 30.04769,-37.702979 0,0 -7.51187,2.51353 -7.51187,2.51353 l 7.51187,-7.54059 -2.5039,-15.081193 c 0,0 7.51189,2.513533 7.51189,2.513533 l 2.50398,-5.027066 c -2.10337,-9.476015 -2.95471,-11.838739 2.50399,-20.108254 -8.163,-13.623346 5.05809,-28.729681 12.51986,-40.2165193 l -17.52783,2.513532 V 0.34787571 c -7.63714,3.99652199 -9.74051,3.51894899 -17.52784,0 L 151.67976,-2.1656573 139.1599,-19.760378 h 180.28652 v 77.919493 c -0.0292,11.939285 1.30205,16.187151 -7.51197,25.135326 l 2.50399,-7.540595 c -10.24123,6.484905 -8.93917,11.486835 -7.51187,22.621785 l -12.51995,-5.02706 -25.03981,12.567659 -5.00797,-7.540599 2.50398,10.054129 -7.51188,7.54059 c 0,0 -7.51197,2.51354 -7.51197,2.51354 L 246.831,105.91623 h 15.02394 c -5.38364,-4.85112 -18.30411,-16.689859 -25.76598,-16.765259 -16.82671,-0.17595 -33.95393,35.289989 -34.32959,49.441179 0,0 7.51197,-2.51354 7.51197,-2.51354 l 2.50399,10.05413 c 15.52466,-15.00579 3.65583,-28.02588 22.53582,-35.18945 0,0 -7.51197,20.10826 -7.51197,20.10826 l 12.51994,2.51353 c -8.11289,4.52435 -9.01432,6.58545 -12.51994,15.08119 l -17.52784,2.51354 -2.50398,-10.05414 v 10.05414 l -22.53583,15.0812 5.00799,12.56765 h -12.51996 c 3.43048,20.33447 10.84225,8.29466 20.45759,2.11137 4.53212,-2.91569 7.11127,-3.31786 12.09419,-4.62489 l 10.01587,10.05412 c 0,0 -7.51188,-12.56766 -7.51188,-12.56766 l 20.03182,17.59472 -2.50399,-5.02706 2.50399,-2.51353 20.03182,10.05413 c -5.83425,16.71498 -13.17096,4.92652 -30.04778,12.56766 -8.0628,-5.50464 -9.43999,-5.65545 -12.51985,-15.0812 -36.00721,3.26759 -23.38714,15.03092 -55.08758,15.0812 H 49.016664 c 9.990806,-15.55877 13.045709,-28.60399 32.551674,-30.16238 0,0 -7.511881,-12.56768 -7.511881,-12.56768 l 15.023852,-5.02706 -2.504001,10.05413 10.015971,2.51354 -17.527837,-37.70299 -5.007985,5.02707 H 71.552472 C 65.517907,129.31721 64.866884,128.41234 54.024635,126.02448 V 158.7004 C 46.76307,154.40227 27.156924,140.02486 28.43391,131.00128 c 2.228534,-15.48336 19.731416,-18.39906 18.078754,-37.652709 17.227326,0.87973 19.906672,11.210349 7.511971,22.621779 l 20.031822,10.05413 -2.503985,-5.02706 v -12.56766 h 2.503985 l 5.007985,5.02706 C 75.483668,96.213991 64.716569,85.079051 49.016664,78.26737 L 56.52853,73.240313 41.504693,70.726781 c -6.259925,9.677095 -8.288159,13.49766 2.503986,20.10825 l -2.503986,12.567659 c 0,0 -17.527837,-20.108249 -17.527837,-20.108249 v 17.594719 -2.513529 l -5.007985,-2.51353 c -2.55409,9.124119 -7.937632,5.303549 -15.0238361,2.51353 v 5.027059 H 1.4410347 L -1.0629505,100.88916 13.960901,98.375631 8.9530054,73.240313 1.4410347,78.26737 C -0.76243929,67.685402 -0.06131143,66.504041 8.9530054,60.672648 c 0,0 -9.41503835,-10.858458 -9.41503835,-10.858458 z M 73.781006,5.3749417 c 7.28661,-4.85111199 8.864121,-11.034403 0,-15.056051 -15.750025,-6.8116727 -35.806892,7.113288 -38.736554,15.081187 -1.226985,3.368132 0.976489,8.8224973 1.452256,12.5425293 L 51.520649,15.429074 49.016664,25.483196 36.496708,22.969663 c 0,0 -7.511881,-12.567656 -7.511881,-12.567656 -6.034655,13.799291 -3.58067,16.916069 2.504,30.162387 L 44.008679,30.510263 36.496708,53.13205 51.520649,55.645583 C 55.877507,43.882252 58.732109,40.815748 56.52853,27.99673 68.222208,23.623189 73.455435,18.143688 73.781006,5.3749417 Z m 37.835104,-12.567656 h -2.50398 l 2.50398,2.513523 z m 7.51197,0 h 2.504 l -2.504,2.513523 z M 299.4146,10.402007 h -2.504 l 2.504,2.513534 z m -30.04779,5.027067 h -2.50399 l 2.50399,2.513533 z m 25.03981,0 h -2.50399 l 2.50399,2.513533 z m -57.59149,7.540589 -15.02394,-2.513523 10.01596,10.054123 5.00798,-5.027067 z m -10.01595,10.054133 c -7.63714,-6.685991 -7.46188,-6.736264 -17.52784,-7.5406 l 2.50399,12.567665 c 0,0 7.51188,-2.513533 7.51188,-2.513533 l -2.5039,15.081189 z m -187.798487,-7.5406 h 2.504 l -2.504,2.513534 z M 18.968871,43.077927 C 15.688697,34.180021 15.463351,33.501367 6.4490202,30.510263 Z M 229.30316,35.537328 c -1.90306,5.881664 -2.07832,5.957073 2.50399,10.054133 z m 77.62341,12.567666 c -5.05809,2.563796 -10.36648,4.976793 -14.69838,8.72195 -8.91423,7.716545 -17.20237,23.074224 -5.33354,31.494557 -1.92803,-26.718844 13.72189,-21.917996 20.03192,-40.216507 z M 51.520649,65.699715 23.976856,50.618517 l 5.007971,5.027066 v 5.027065 l -5.007971,5.027067 z M 21.472871,53.13205 l -10.01597,2.513533 10.01597,7.540598 z m -22.5358215,2.513533 h 2.5039852 l -2.5039852,2.513532 z M 33.992723,70.726781 c 0,0 -7.511881,-2.513533 -7.511881,-2.513533 l 2.503985,12.567654 z m -15.023852,0 c -3.705835,7.842215 -3.054813,8.671677 2.504,15.08119 z m 295.469569,15.08119 c 3.63077,9.22466 3.38037,14.603619 -2.50399,22.621789 z M 151.67976,108.42976 c 1.05174,11.78846 8.73897,8.52087 15.02394,2.51353 z m -102.663096,7.54059 -7.511971,5.02707 z m 135.214866,22.6218 v 22.62179 l 10.01587,-7.54061 z m -2.50398,10.05412 h -5.00799 l -2.50398,10.05413 c 0,0 7.51197,-10.05413 7.51197,-10.05413 z m -147.734827,20.10826 10.015956,2.51354 z m 247.894037,25.13533 c -10.41657,-6.78654 -14.12251,-20.15853 0,-25.13533 z m -40.06374,-22.62179 h 12.51995 c 0,0 7.51197,12.56766 7.51197,12.56766 h -22.53582 z m -35.05566,12.56766 h -2.504 l 2.504,2.51353 z m 10.01595,5.02707 h -2.50398 l 2.50398,2.51352 z m 30.04769,7.54059 h -2.504 l 2.504,2.51353 z"
       fill="#7a5c94"
       stroke="#000000"
       style="mix-blend-mode:normal;fill:#fbfbfb;fill-opacity:0.22586279;stroke:none;stroke-width:0.25689" />
    <path
       id="rect1100-4"
       style="opacity:0.529;fill:#ffffff;fill-opacity:1;stroke:#000000;stroke-width:0;stroke-linecap:round;stroke-linejoin:round;stroke-miterlimit:4;stroke-dasharray:none;stroke-dashoffset:0;stroke-opacity:1"
       d="m 4.7169251,234.0415 a 6.9365106,6.9365106 0 0 0 -4.04722952,4.04723 v 4.88827 a 6.9365106,6.9365106 0 0 0 4.04881412,4.04776 H 9.6051939 A 6.9365106,6.9365106 0 0 0 13.652955,242.977 v -4.88827 A 6.9365106,6.9365106 0 0 0 9.6051939,234.0415 Z" />
    <path
       id="rect1100-4-3"
       style="opacity:0.529;fill:#ffffff;fill-opacity:1;stroke:#000000;stroke-width:0;stroke-linecap:round;stroke-linejoin:round;stroke-miterlimit:4;stroke-dasharray:none;stroke-dashoffset:0;stroke-opacity:1"
       d="m 309.82353,234.0415 a 6.9365106,6.9365106 0 0 0 -4.04723,4.04723 v 4.88827 a 6.9365106,6.9365106 0 0 0 4.04881,4.04776 h 4.88669 a 6.9365106,6.9365106 0 0 0 4.04776,-4.04776 v -4.88827 a 6.9365106,6.9365106 0 0 0 -4.04776,-4.04723 z" />
    <text
       xml:space="preserve"
       id="text996"
       style="font-size:3.88056px;line-height:1.25;font-family:'Noto Mono';-inkscape-font-specification:'Noto Mono';word-spacing:0px;white-space:pre;shape-inside:url(#rect998);display:inline;stroke-width:1.08739;"
       transform="matrix(0,-0.91963517,0.91963517,0,15.897558,230.82552)"><tspan
         x="70.878906"
         y="-11.191732"><tspan
           style="font-style:normal;font-variant:normal;font-weight:normal;font-stretch:normal;font-family:OCRA;-inkscape-font-specification:OCRA;fill:#ffffff;fill-opacity:1;stroke-width:1.08739">4c4fc3cc76d6427de59188c37e55c200bfc3d393a094bf23c0f874a4ff14fa6b
</tspan></tspan><tspan
         x="70.878906"
         y="-6.3086945"><tspan
           style="font-style:normal;font-variant:normal;font-weight:normal;font-stretch:normal;font-family:OCRA;-inkscape-font-specification:OCRA;fill:#ffffff;fill-opacity:1;stroke-width:1.08739">6a999427bda65bc71ab5582cfd27071aff53d599b444e7efe7e4ce02e6d94b74
</tspan></tspan><tspan
         x="70.878906"
         y="-1.4256565"><tspan
           style="font-style:normal;font-variant:normal;font-weight:normal;font-stretch:normal;font-family:OCRA;-inkscape-font-specification:OCRA;fill:#ffffff;fill-opacity:1;stroke-width:1.08739">ea25b2ba915605f675967fe48d5cceb614b50cfdfaa83fa24e2531eac1699789
</tspan></tspan><tspan
         x="70.878906"
         y="3.4573816"><tspan
           style="font-style:normal;font-variant:normal;font-weight:normal;font-stretch:normal;font-family:OCRA;-inkscape-font-specification:OCRA;fill:#ffffff;fill-opacity:1;stroke-width:1.08739">cea477f7e4807abf8e800eedb0fd7b7eae53751518e18beb65753d82c8492911
</tspan></tspan><tspan
         x="70.878906"
         y="8.3404196"><tspan
           style="font-style:normal;font-variant:normal;font-weight:normal;font-stretch:normal;font-family:OCRA;-inkscape-font-specification:OCRA;fill:#ffffff;fill-opacity:1;stroke-width:1.08739">0dc8587ad2b023d39fd02210cd0909d6196a572e58fe709a6594fab3555bc36e
</tspan></tspan><tspan
         x="70.878906"
         y="13.223458"><tspan
           style="font-style:normal;font-variant:normal;font-weight:normal;font-stretch:normal;font-family:OCRA;-inkscape-font-specification:OCRA;fill:#ffffff;fill-opacity:1;stroke-width:1.08739">2e18c701e724f16cfc5147c774f73a3f7b325e894c4c5cad323bca6d35067f2d
</tspan></tspan><tspan
         x="70.878906"
         y="18.106495"><tspan
           style="font-style:normal;font-variant:normal;font-weight:normal;font-stretch:normal;font-family:OCRA;-inkscape-font-specification:OCRA;fill:#ffffff;fill-opacity:1;stroke-width:1.08739">    </tspan></tspan></text>
    <text
       xml:space="preserve"
       id="text837"
       style="font-style:normal;font-variant:normal;font-weight:bold;font-stretch:normal;font-size:17.3778px;line-height:0.95;font-family:'Liberation Sans';-inkscape-font-specification:'Liberation Sans Bold';word-spacing:0px;white-space:pre;shape-inside:url(#rect839-3);display:inline;fill:#ffffff;fill-opacity:1;stroke-width:0.464442;"
       transform="matrix(2.15312,0,0,2.15312,-58.696122,94.710554)"
       x="242.51895"
       y="0"><tspan
         x="60.625"
         y="-14.082446"><tspan
           style="font-style:italic;font-variant:normal;font-weight:bold;font-stretch:condensed;font-size:17.3778px;font-family:'Liberation Sans Narrow';-inkscape-font-specification:'Liberation Sans Narrow Bold Italic Condensed';text-align:start;text-anchor:start;fill:#ffffff;fill-opacity:1;stroke-width:0.464442">THE 
</tspan></tspan><tspan
         x="60.625"
         y="2.4264631"><tspan
           style="font-style:italic;font-variant:normal;font-weight:bold;font-stretch:condensed;font-size:17.3778px;font-family:'Liberation Sans Narrow';-inkscape-font-specification:'Liberation Sans Narrow Bold Italic Condensed';text-align:start;text-anchor:start;fill:#ffffff;fill-opacity:1;stroke-width:0.464442">MONTEREY </tspan></tspan><tspan
         x="60.625"
         y="18.935372"><tspan
           style="font-style:italic;font-variant:normal;font-weight:bold;font-stretch:condensed;font-size:17.3778px;font-family:'Liberation Sans Narrow';-inkscape-font-specification:'Liberation Sans Narrow Bold Italic Condensed';text-align:start;text-anchor:start;fill:#ffffff;fill-opacity:1;stroke-width:0.464442">PROTOCOLS</tspan></tspan></text>
  </g>
  <g
     inkscape:groupmode="layer"
     id="layer2"
     inkscape:label="Layer 2"
     style="display:inline" />
  <g
     inkscape:groupmode="layer"
     id="layer4"
     inkscape:label="Layer 4"
     style="display:inline" />
</svg>
